<?xml version="1.0" encoding="UTF-8"?>
<svg version="1.1" xmlns="http://www.w3.org/2000/svg" width="512" height="512">
<path d="M0 0 C0.80638412 -0.00974854 1.61276825 -0.01949707 2.44358826 -0.02954102 C21.12829354 -0.20871817 39.04776161 0.21850879 57.3828125 4.23828125 C58.22956543 4.4202002 59.07631836 4.60211914 59.94873047 4.78955078 C78.95089212 9.00764618 97.29558247 15.95724492 114.3828125 25.23828125 C115.04474609 25.59003418 115.70667969 25.94178711 116.38867188 26.30419922 C142.80321371 40.36457137 167.17522204 60.43099788 185.3828125 84.23828125 C185.8768457 84.88297363 186.37087891 85.52766602 186.87988281 86.19189453 C195.1069679 97.02530815 202.16830704 108.14238529 208.3828125 120.23828125 C208.73150391 120.90053711 209.08019531 121.56279297 209.43945312 122.24511719 C220.67538949 143.73948494 226.51301375 167.37816533 231.47247314 190.96966553 C232.78383666 197.20582633 234.14916383 203.43030934 235.51107025 209.65559006 C235.8127388 211.03496909 236.11395498 212.41444714 236.414711 213.79402542 C243.29163683 245.33272327 251.9317288 276.38056323 261.3828125 307.23828125 C261.62020142 308.01635132 261.85759033 308.79442139 262.10217285 309.59606934 C269.35557859 333.31389251 277.71397155 355.65800766 293.3828125 375.23828125 C294.08857422 376.1212085 294.08857422 376.1212085 294.80859375 377.02197266 C300.69207004 384.29287822 306.8477706 390.90838807 313.91015625 397.0546875 C321.14445813 403.44327321 321.14445813 403.44327321 322.01171875 406.3359375 C321.90496694 409.49453531 321.54309256 411.9329859 320.0703125 414.73828125 C311.70967134 419.40468562 300.26095988 415.2978021 291.57470703 412.88867188 C280.7783577 409.68512157 270.50802165 405.12750896 260.3828125 400.23828125 C275.30050306 414.60037812 292.30490605 426.8370241 310.6328125 436.52734375 C311.28048584 436.87385986 311.92815918 437.22037598 312.59545898 437.57739258 C314.31632908 438.48291047 316.05409752 439.35611238 317.79296875 440.2265625 C321.22283023 442.89078371 321.71383279 445.01089883 322.3828125 449.23828125 C320.33735795 454.76100852 320.33735795 454.76100852 317.3828125 456.23828125 C308.49979124 456.89780518 299.92329345 455.6384543 291.1953125 454.11328125 C290.54663208 454.00190826 289.89795166 453.89053528 289.22961426 453.77578735 C267.99744327 450.11831579 247.51398014 444.58315587 226.99511719 438.05664062 C223.80592349 437.05755864 220.60287894 436.13223737 217.3828125 435.23828125 C219.3989641 436.43430339 221.42038821 437.61975667 223.4453125 438.80078125 C224.57066406 439.46207031 225.69601562 440.12335938 226.85546875 440.8046875 C238.84148383 447.44399281 251.65938051 452.53509122 264.29708862 457.77508545 C268.08078693 459.34505814 271.86039565 460.92476403 275.64027405 462.50390625 C281.77066507 465.06491881 287.90215028 467.62328843 294.03710938 470.17333984 C297.9695884 471.80883432 301.89529552 473.45996129 305.8203125 475.11328125 C306.9549292 475.58209717 308.0895459 476.05091309 309.25854492 476.53393555 C310.80312378 477.18809448 310.80312378 477.18809448 312.37890625 477.85546875 C313.25732178 478.22269043 314.1357373 478.58991211 315.04077148 478.96826172 C317.67707904 480.39785329 319.41856305 481.98219568 321.3828125 484.23828125 C321.9140625 486.23828125 321.9140625 486.23828125 321.8828125 488.23828125 C321.893125 488.89828125 321.9034375 489.55828125 321.9140625 490.23828125 C321.1351956 493.17048605 319.7162978 494.33363953 317.3828125 496.23828125 C314.65379333 496.73948669 314.65379333 496.73948669 311.48217773 496.73999023 C309.69136024 496.75406166 309.69136024 496.75406166 307.86436462 496.76841736 C306.56978836 496.75718338 305.2752121 496.7459494 303.94140625 496.734375 C302.5769086 496.7345304 301.21241052 496.7360262 299.84791565 496.73878479 C296.97190049 496.74017161 294.09638199 496.72760178 291.22045898 496.70483398 C287.62132113 496.67705717 284.02303833 496.67929352 280.42384243 496.69153786 C233.66195811 496.81827887 186.84606435 488.93280671 143.3828125 471.23828125 C143.5271875 472.38425781 143.6715625 473.53023438 143.8203125 474.7109375 C144.00803286 476.2408584 144.19552047 477.77080786 144.3828125 479.30078125 C144.52589844 480.4290332 144.52589844 480.4290332 144.671875 481.58007812 C145.22658115 486.15640386 145.57507292 490.61802296 145.3828125 495.23828125 C143.36836825 497.2527255 139.64814691 497.00302668 136.8828125 497.36328125 C135.82900391 497.51216797 135.82900391 497.51216797 134.75390625 497.6640625 C132.96904398 497.90135633 131.17595061 498.07488782 129.3828125 498.23828125 C129.0528125 497.90828125 128.7228125 497.57828125 128.3828125 497.23828125 C126.53556077 497.12957435 124.68413783 497.09139523 122.83372498 497.08006287 C121.62912628 497.07027405 120.42452759 497.06048523 119.1834259 497.05039978 C117.83639566 497.04449484 116.489365 497.03868444 115.14233398 497.03295898 C113.73333444 497.02338574 112.32433781 497.01337599 110.91534424 497.00296021 C107.07876748 496.97584502 103.24217834 496.9548714 99.40555835 496.93495822 C95.40031836 496.91313931 91.39511683 496.88573065 87.38990784 496.85890198 C79.80032035 496.80891954 72.21071159 496.76400138 64.62108237 496.72087961 C55.98274595 496.67155457 47.34444811 496.61661895 38.70614898 496.56120002 C20.93173928 496.4472948 3.1572932 496.34047445 -14.6171875 496.23828125 C-14.64355286 495.23137741 -14.66991821 494.22447357 -14.69708252 493.1870575 C-14.7967246 489.40606614 -14.89953229 485.62516604 -15.00323486 481.84428406 C-15.0474572 480.2163568 -15.09085208 478.58840683 -15.13336182 476.96043396 C-15.66711693 456.56934495 -16.71323202 437.57893954 -26.6171875 419.23828125 C-26.6171875 418.57828125 -26.6171875 417.91828125 -26.6171875 417.23828125 C-27.75542969 417.51414062 -28.89367187 417.79 -30.06640625 418.07421875 C-84.79511292 430.18867383 -84.79511292 430.18867383 -104.28515625 418.66015625 C-114.52430968 411.94496552 -121.48774911 403.05236962 -124.2421875 391 C-124.71708412 388.6452069 -125.17464255 386.28686814 -125.6171875 383.92578125 C-125.86355957 382.6728125 -126.10993164 381.41984375 -126.36376953 380.12890625 C-127.00486582 376.83583438 -127.63078636 373.54088 -128.2442627 370.24261475 C-128.61683717 368.24016416 -128.99317104 366.23844819 -129.37011719 364.23681641 C-130.08935765 360.40612145 -130.79375802 356.57283066 -131.4921875 352.73828125 C-131.70746094 351.55838623 -131.92273438 350.37849121 -132.14453125 349.1628418 C-132.33917969 348.06367432 -132.53382813 346.96450684 -132.734375 345.83203125 C-132.90565918 344.86974609 -133.07694336 343.90746094 -133.25341797 342.91601562 C-133.60628342 340.318547 -133.68434701 337.85571928 -133.6171875 335.23828125 C-134.679375 335.01914062 -135.7415625 334.8 -136.8359375 334.57421875 C-148.17074675 332.09230024 -155.22142218 329.00448602 -162.29296875 319.4609375 C-167.2204305 311.19036011 -168.56323194 302.61807316 -166.6171875 293.23828125 C-163.8221004 285.19426411 -159.63631038 277.72114754 -155.6171875 270.23828125 C-154.37743206 267.87505467 -153.1479838 265.50745827 -151.93359375 263.13110352 C-151.24246366 261.78286187 -150.53750329 260.4415855 -149.81640625 259.10913086 C-148.56718987 256.71556171 -147.60545885 254.8247135 -147.66015625 252.08984375 C-148.96697224 249.56155485 -150.68472752 247.8299601 -152.6796875 245.80078125 C-168.60187097 228.56229645 -175.47771297 206.33036482 -175.1171875 183.23828125 C-175.11131622 182.52794739 -175.10544495 181.81761353 -175.09939575 181.08575439 C-174.62906913 132.12673295 -153.87244389 86.27454368 -119.265625 51.84765625 C-88.14728429 21.79046953 -43.7691207 0.44128545 0 0 Z " fill="#652713" transform="translate(182.6171875,7.76171875)"/>
<path d="M0 0 C0.80638412 -0.00974854 1.61276825 -0.01949707 2.44358826 -0.02954102 C21.12829354 -0.20871817 39.04776161 0.21850879 57.3828125 4.23828125 C58.22956543 4.4202002 59.07631836 4.60211914 59.94873047 4.78955078 C78.95089212 9.00764618 97.29558247 15.95724492 114.3828125 25.23828125 C115.04474609 25.59003418 115.70667969 25.94178711 116.38867188 26.30419922 C142.80321371 40.36457137 167.17522204 60.43099788 185.3828125 84.23828125 C185.8768457 84.88297363 186.37087891 85.52766602 186.87988281 86.19189453 C195.1069679 97.02530815 202.16830704 108.14238529 208.3828125 120.23828125 C208.73150391 120.90053711 209.08019531 121.56279297 209.43945312 122.24511719 C220.67538949 143.73948494 226.51301375 167.37816533 231.47247314 190.96966553 C232.78383666 197.20582633 234.14916383 203.43030934 235.51107025 209.65559006 C235.8127388 211.03496909 236.11395498 212.41444714 236.414711 213.79402542 C243.29163683 245.33272327 251.9317288 276.38056323 261.3828125 307.23828125 C261.62020142 308.01635132 261.85759033 308.79442139 262.10217285 309.59606934 C269.35557859 333.31389251 277.71397155 355.65800766 293.3828125 375.23828125 C294.08857422 376.1212085 294.08857422 376.1212085 294.80859375 377.02197266 C300.69207004 384.29287822 306.8477706 390.90838807 313.91015625 397.0546875 C321.14445813 403.44327321 321.14445813 403.44327321 322.01171875 406.3359375 C321.90496694 409.49453531 321.54309256 411.9329859 320.0703125 414.73828125 C311.70967134 419.40468562 300.26095988 415.2978021 291.57470703 412.88867188 C280.7783577 409.68512157 270.50802165 405.12750896 260.3828125 400.23828125 C275.30050306 414.60037812 292.30490605 426.8370241 310.6328125 436.52734375 C311.28048584 436.87385986 311.92815918 437.22037598 312.59545898 437.57739258 C314.31632908 438.48291047 316.05409752 439.35611238 317.79296875 440.2265625 C321.22283023 442.89078371 321.71383279 445.01089883 322.3828125 449.23828125 C320.33735795 454.76100852 320.33735795 454.76100852 317.3828125 456.23828125 C308.49979124 456.89780518 299.92329345 455.6384543 291.1953125 454.11328125 C290.54663208 454.00190826 289.89795166 453.89053528 289.22961426 453.77578735 C267.99744327 450.11831579 247.51398014 444.58315587 226.99511719 438.05664062 C223.80592349 437.05755864 220.60287894 436.13223737 217.3828125 435.23828125 C219.3989641 436.43430339 221.42038821 437.61975667 223.4453125 438.80078125 C224.57066406 439.46207031 225.69601562 440.12335938 226.85546875 440.8046875 C238.84148383 447.44399281 251.65938051 452.53509122 264.29708862 457.77508545 C268.08078693 459.34505814 271.86039565 460.92476403 275.64027405 462.50390625 C281.77066507 465.06491881 287.90215028 467.62328843 294.03710938 470.17333984 C297.9695884 471.80883432 301.89529552 473.45996129 305.8203125 475.11328125 C306.9549292 475.58209717 308.0895459 476.05091309 309.25854492 476.53393555 C310.80312378 477.18809448 310.80312378 477.18809448 312.37890625 477.85546875 C313.25732178 478.22269043 314.1357373 478.58991211 315.04077148 478.96826172 C317.67707904 480.39785329 319.41856305 481.98219568 321.3828125 484.23828125 C321.9140625 486.23828125 321.9140625 486.23828125 321.8828125 488.23828125 C321.893125 488.89828125 321.9034375 489.55828125 321.9140625 490.23828125 C321.1351956 493.17048605 319.7162978 494.33363953 317.3828125 496.23828125 C314.65379333 496.73948669 314.65379333 496.73948669 311.48217773 496.73999023 C309.69136024 496.75406166 309.69136024 496.75406166 307.86436462 496.76841736 C306.56978836 496.75718338 305.2752121 496.7459494 303.94140625 496.734375 C302.5769086 496.7345304 301.21241052 496.7360262 299.84791565 496.73878479 C296.97190049 496.74017161 294.09638199 496.72760178 291.22045898 496.70483398 C287.62132113 496.67705717 284.02303833 496.67929352 280.42384243 496.69153786 C233.66195811 496.81827887 186.84606435 488.93280671 143.3828125 471.23828125 C143.5271875 472.38425781 143.6715625 473.53023438 143.8203125 474.7109375 C144.00803286 476.2408584 144.19552047 477.77080786 144.3828125 479.30078125 C144.52589844 480.4290332 144.52589844 480.4290332 144.671875 481.58007812 C145.22658115 486.15640386 145.57507292 490.61802296 145.3828125 495.23828125 C143.36836825 497.2527255 139.64814691 497.00302668 136.8828125 497.36328125 C135.82900391 497.51216797 135.82900391 497.51216797 134.75390625 497.6640625 C132.96904398 497.90135633 131.17595061 498.07488782 129.3828125 498.23828125 C129.0528125 497.90828125 128.7228125 497.57828125 128.3828125 497.23828125 C126.53556077 497.12957435 124.68413783 497.09139523 122.83372498 497.08006287 C121.62912628 497.07027405 120.42452759 497.06048523 119.1834259 497.05039978 C117.83639566 497.04449484 116.489365 497.03868444 115.14233398 497.03295898 C113.73333444 497.02338574 112.32433781 497.01337599 110.91534424 497.00296021 C107.07876748 496.97584502 103.24217834 496.9548714 99.40555835 496.93495822 C95.40031836 496.91313931 91.39511683 496.88573065 87.38990784 496.85890198 C79.80032035 496.80891954 72.21071159 496.76400138 64.62108237 496.72087961 C55.98274595 496.67155457 47.34444811 496.61661895 38.70614898 496.56120002 C20.93173928 496.4472948 3.1572932 496.34047445 -14.6171875 496.23828125 C-14.64355286 495.23137741 -14.66991821 494.22447357 -14.69708252 493.1870575 C-14.7967246 489.40606614 -14.89953229 485.62516604 -15.00323486 481.84428406 C-15.0474572 480.2163568 -15.09085208 478.58840683 -15.13336182 476.96043396 C-15.66711693 456.56934495 -16.71323202 437.57893954 -26.6171875 419.23828125 C-26.6171875 418.57828125 -26.6171875 417.91828125 -26.6171875 417.23828125 C-27.75542969 417.51414062 -28.89367187 417.79 -30.06640625 418.07421875 C-84.79511292 430.18867383 -84.79511292 430.18867383 -104.28515625 418.66015625 C-114.52430968 411.94496552 -121.48774911 403.05236962 -124.2421875 391 C-124.71708412 388.6452069 -125.17464255 386.28686814 -125.6171875 383.92578125 C-125.86355957 382.6728125 -126.10993164 381.41984375 -126.36376953 380.12890625 C-127.00486582 376.83583438 -127.63078636 373.54088 -128.2442627 370.24261475 C-128.61683717 368.24016416 -128.99317104 366.23844819 -129.37011719 364.23681641 C-130.08935765 360.40612145 -130.79375802 356.57283066 -131.4921875 352.73828125 C-131.70746094 351.55838623 -131.92273438 350.37849121 -132.14453125 349.1628418 C-132.33917969 348.06367432 -132.53382813 346.96450684 -132.734375 345.83203125 C-132.90565918 344.86974609 -133.07694336 343.90746094 -133.25341797 342.91601562 C-133.60628342 340.318547 -133.68434701 337.85571928 -133.6171875 335.23828125 C-134.679375 335.01914062 -135.7415625 334.8 -136.8359375 334.57421875 C-148.17074675 332.09230024 -155.22142218 329.00448602 -162.29296875 319.4609375 C-167.2204305 311.19036011 -168.56323194 302.61807316 -166.6171875 293.23828125 C-163.8221004 285.19426411 -159.63631038 277.72114754 -155.6171875 270.23828125 C-154.37743206 267.87505467 -153.1479838 265.50745827 -151.93359375 263.13110352 C-151.24246366 261.78286187 -150.53750329 260.4415855 -149.81640625 259.10913086 C-148.56718987 256.71556171 -147.60545885 254.8247135 -147.66015625 252.08984375 C-148.96697224 249.56155485 -150.68472752 247.8299601 -152.6796875 245.80078125 C-168.60187097 228.56229645 -175.47771297 206.33036482 -175.1171875 183.23828125 C-175.11131622 182.52794739 -175.10544495 181.81761353 -175.09939575 181.08575439 C-174.62906913 132.12673295 -153.87244389 86.27454368 -119.265625 51.84765625 C-88.14728429 21.79046953 -43.7691207 0.44128545 0 0 Z M-107.6171875 64.23828125 C-108.43832031 65.0065625 -109.25945312 65.77484375 -110.10546875 66.56640625 C-140.68006367 96.04735314 -157.80196857 138.71961267 -158.9519043 180.80517578 C-159.22130677 200.83892332 -154.3998099 220.077732 -140.0859375 234.83203125 C-139.60125 235.29609375 -139.1165625 235.76015625 -138.6171875 236.23828125 C-137.02868654 234.98412289 -137.02868654 234.98412289 -135.6171875 233.23828125 C-135.78416064 228.06211383 -136.80795172 223.37579842 -138.0546875 218.36328125 C-144.51768984 191.08560962 -144.28598072 161.21188696 -129.44067383 136.71630859 C-119.91496939 121.70201323 -106.58252557 110.02125246 -92.6171875 99.23828125 C-89.3191991 101.73284147 -86.71325147 104.12749431 -84.3046875 107.48828125 C-83.79292969 108.1946875 -83.28117187 108.90109375 -82.75390625 109.62890625 C-82.37878906 110.16 -82.00367187 110.69109375 -81.6171875 111.23828125 C-82.14828125 111.46257812 -82.679375 111.686875 -83.2265625 111.91796875 C-86.4282761 113.68623541 -89.09865854 115.99877206 -91.8671875 118.36328125 C-92.42148438 118.83121094 -92.97578125 119.29914063 -93.546875 119.78125 C-94.90666076 120.93003453 -96.26233915 122.08367778 -97.6171875 123.23828125 C-96.24204732 130.07211299 -94.28182316 136.47372382 -91.93359375 143.03125 C-91.56628647 144.07063217 -91.19897919 145.11001434 -90.82054138 146.18089294 C-89.61187989 149.59763478 -88.39589957 153.01172056 -87.1796875 156.42578125 C-86.32828161 158.82648487 -85.47737837 161.2273668 -84.62695312 163.62841797 C-83.3029047 167.36648196 -81.97863454 171.10446403 -80.65200806 174.84161377 C-77.5814053 183.49462347 -74.54195815 192.15814655 -71.51953125 200.828125 C-47.97613764 268.31421351 -20.51409797 327.49117084 30.7578125 378.80078125 C31.62664062 379.68185547 32.49546875 380.56292969 33.390625 381.47070312 C39.40708582 387.50051408 45.73017314 392.92707573 52.3828125 398.23828125 C53.66540388 399.31040164 54.94452064 400.38670457 56.21875 401.46875 C71.69247008 414.46667487 88.71551844 425.45970905 106.3828125 435.23828125 C107.22473145 435.70443848 108.06665039 436.1705957 108.93408203 436.65087891 C131.42353825 448.98249582 154.82930485 458.8258227 179.3828125 466.23828125 C180.27371582 466.50979004 181.16461914 466.78129883 182.08251953 467.06103516 C210.65479806 475.59109581 242.52832818 481.04154092 272.3828125 480.23828125 C269.60870072 477.46416947 266.26424776 476.40853221 262.68359375 474.96484375 C261.07617751 474.30494264 259.46900955 473.64443651 257.86206055 472.98339844 C256.59620621 472.46489319 256.59620621 472.46489319 255.30477905 471.93591309 C228.63227137 460.97207036 203.56930878 449.25640457 182.3828125 429.23828125 C181.03272792 428.08764098 179.67869661 426.94161165 178.3203125 425.80078125 C172.85616246 421.0459732 167.77657569 415.61556888 163.5859375 409.703125 C160.73460318 406.51306834 157.64132846 404.88749782 153.8828125 402.92578125 C141.7242001 396.32692322 130.55514527 388.36361417 119.3828125 380.23828125 C118.36058594 379.49578125 117.33835937 378.75328125 116.28515625 377.98828125 C105.3480797 369.91876496 95.15056307 361.07584088 85.19921875 351.83203125 C82.71443966 349.543691 80.18330846 347.32740129 77.6328125 345.11328125 C66.57649532 335.18224353 56.53515649 323.93107366 47.3828125 312.23828125 C46.52969297 311.17624133 45.67546593 310.11509041 44.8203125 309.0546875 C16.94984734 274.31294407 -2.35426578 235.13386027 -21.6171875 195.23828125 C-20.67987793 194.93035645 -19.74256836 194.62243164 -18.77685547 194.30517578 C-16.00861344 193.37045026 -13.39923401 192.32102966 -10.7421875 191.11328125 C-9.3671875 190.48828125 -7.9921875 189.86328125 -6.6171875 189.23828125 C-6.23949219 190.48480469 -5.86179688 191.73132813 -5.47265625 193.015625 C-3.51010904 198.89407974 -0.75148187 204.29548553 2.0703125 209.80078125 C3.15638313 211.94264083 4.24232057 214.08456796 5.328125 216.2265625 C5.85438477 217.25990723 6.38064453 218.29325195 6.92285156 219.35791016 C8.48039746 222.43080757 10.00472931 225.51855119 11.52124023 228.61181641 C25.32573935 256.64388515 42.29497068 282.31112495 62.3828125 306.23828125 C63.17945313 307.22054688 63.97609375 308.2028125 64.796875 309.21484375 C71.4535449 317.31362764 78.72571937 324.76956876 86.1328125 332.17578125 C86.62831604 332.67219116 87.12381958 333.16860107 87.63433838 333.68005371 C96.68265661 343.53758745 96.68265661 343.53758745 107.3828125 351.23828125 C105.99464053 346.67119547 104.09402373 342.57277226 101.8828125 338.36328125 C91.59069548 318.13624701 84.16539658 296.84445773 77.3828125 275.23828125 C77.11629883 274.39136719 76.84978516 273.54445313 76.57519531 272.671875 C73.00882429 261.13331656 70.58124272 249.31133183 68.05151367 237.51245117 C65.93986006 227.67413567 63.67339993 217.88363881 61.24829102 208.11694336 C60.02959554 203.1628381 58.98725941 198.30579543 58.3828125 193.23828125 C58.96289062 193.17769531 59.54296875 193.11710938 60.140625 193.0546875 C60.92179688 192.97089844 61.70296875 192.88710937 62.5078125 192.80078125 C63.27351562 192.71957031 64.03921875 192.63835937 64.828125 192.5546875 C67.69602768 192.19948854 70.53370691 191.71998924 73.3828125 191.23828125 C73.49455811 191.9667627 73.60630371 192.69524414 73.72143555 193.44580078 C74.88684062 200.76634931 76.40876985 207.921612 78.1953125 215.11328125 C78.73161957 217.30701064 79.26675309 219.50102723 79.80078125 221.6953125 C80.06681152 222.7879541 80.3328418 223.8805957 80.60693359 225.00634766 C81.78826333 229.9271919 82.89954127 234.86306814 84.0078125 239.80078125 C84.79600665 243.28074436 85.58803791 246.75981545 86.3828125 250.23828125 C86.61750244 251.26961182 86.61750244 251.26961182 86.85693359 252.32177734 C96.61608365 294.71878898 113.70495187 334.76657908 137.3828125 371.23828125 C137.78798096 371.89554199 138.19314941 372.55280273 138.6105957 373.22998047 C141.75711148 378.07148066 145.53725261 380.78289035 150.4453125 383.73828125 C151.67229858 384.49141602 151.67229858 384.49141602 152.92407227 385.25976562 C173.63043672 397.77005923 194.93295733 408.24985286 217.3828125 417.23828125 C218.27822754 417.59889648 219.17364258 417.95951172 220.09619141 418.33105469 C236.98010334 425.05552637 254.55467361 429.7700085 272.3828125 433.23828125 C268.87063049 429.62907763 265.20000807 426.32576803 261.3203125 423.11328125 C254.82761067 417.67571325 248.5546903 412.03638211 242.3828125 406.23828125 C241.39861328 405.31789063 241.39861328 405.31789063 240.39453125 404.37890625 C236.12196442 400.25366932 232.40585645 395.73053164 228.69140625 391.1015625 C227.22871902 389.28743435 225.7440951 387.49059936 224.23046875 385.71875 C200.380578 357.64229633 186.45233064 322.8487249 171.64453125 289.53515625 C169.67069229 285.09959015 167.67332397 280.67682307 165.64198303 276.26731873 C164.42547304 273.62549732 163.21685084 270.98009895 162.00857544 268.33450317 C161.43276289 267.07952196 160.85317521 265.82626475 160.26950073 264.57492065 C154.48838881 252.17383248 154.48838881 252.17383248 154.3828125 245.23828125 C155.8203125 242.67578125 155.8203125 242.67578125 158.3828125 241.23828125 C161.51279489 241.2193499 163.507986 241.22616872 166.3828125 242.23828125 C168.39589997 244.63143963 169.57436074 246.44171713 170.9453125 249.17578125 C171.79453766 250.73624093 172.64487103 252.29609783 173.49609375 253.85546875 C173.95322754 254.71495117 174.41036133 255.57443359 174.88134766 256.45996094 C177.68090001 261.64027082 180.67541964 266.70953024 183.6328125 271.80078125 C184.93032836 274.05171404 186.22719914 276.30301879 187.5234375 278.5546875 C191.68972835 285.7789691 195.89281326 292.98147068 200.10351562 300.17993164 C203.82945799 306.55593477 207.51927017 312.95168704 211.19213867 319.35839844 C214.23754461 324.6622857 217.30337299 329.9540893 220.3828125 335.23828125 C220.85702637 336.05361328 221.33124023 336.86894531 221.81982422 337.70898438 C236.89957788 363.42499846 257.58292329 380.63071182 284.3828125 393.23828125 C284.3828125 389.30613092 283.16413816 388.57850384 280.5703125 385.67578125 C260.14194183 361.27077327 250.31338205 330.58936282 242.08984375 300.38671875 C240.7754247 295.58590615 239.35173024 290.83148428 237.86132812 286.08276367 C228.74779056 257.04509351 221.77594059 227.21003766 215.78198242 197.3894043 C207.15140143 154.48749402 192.58019972 116.15886949 162.46875 83.51171875 C160.530587 81.39933885 158.67257979 79.23830053 156.8203125 77.05078125 C153.3052594 73.04154835 149.49146968 69.62841333 145.3828125 66.23828125 C144.88313965 65.81562988 144.3834668 65.39297852 143.86865234 64.95751953 C113.0145015 38.90874628 75.87747021 22.56699027 35.79882812 17.55004883 C33.87573259 17.30188866 31.96090016 16.989905 30.05078125 16.65625 C-21.10548212 10.82694203 -70.56931033 29.18482488 -107.6171875 64.23828125 Z " fill="#010000" transform="translate(182.6171875,7.76171875)"/>
<path d="M0 0 C0.66 0 1.32 0 2 0 C4.29479982 6.59316724 6.5874148 13.18709151 8.87866211 19.78149414 C9.65487714 22.01473314 10.4315536 24.24781183 11.20874023 26.48071289 C15.43165718 38.61443353 19.64350623 50.74844838 23.61427307 62.96757507 C25.25492099 67.96416538 27.10508246 72.83417376 29.08537292 77.70579529 C30.23498623 80.58942768 31.22821585 83.50769232 32.18359375 86.4609375 C32.55419922 87.59273438 32.92480469 88.72453125 33.30664062 89.890625 C34.0578808 92.20532703 34.80788985 94.52042901 35.55664062 96.8359375 C37.71528109 103.4203521 40.0881419 109.82748359 42.81030273 116.19970703 C43.9061482 118.77909293 44.94499004 121.37118221 45.95703125 123.984375 C49.79920741 133.87810618 53.95170996 143.44534966 58.87988281 152.84521484 C60.10649847 155.2048726 61.299762 157.57992327 62.4921875 159.95703125 C68.86310082 172.53946786 76.04543364 184.35910866 84 196 C84.4419873 196.65049316 84.88397461 197.30098633 85.33935547 197.97119141 C91.55148315 207.0601576 98.3681463 215.62657051 105.40917969 224.08447266 C106.86977773 225.84319768 108.31480446 227.61356638 109.7578125 229.38671875 C115.96488277 236.91520086 122.68747591 243.89208623 129.5625 250.8125 C130.42488281 251.68414795 131.28726563 252.5557959 132.17578125 253.45385742 C137.39090263 258.64379214 142.79741667 263.4223302 148.5378418 268.02368164 C150.50340853 269.60139732 152.42566517 271.20228358 154.3203125 272.86328125 C162.76826426 280.2405316 171.71344261 286.72041952 181 293 C181.7017334 293.47469727 182.4034668 293.94939453 183.12646484 294.43847656 C199.05669293 305.13749724 216.23714178 315.76921659 234.14257812 322.84692383 C236 324 236 324 236.69775391 325.82495117 C236.78976074 326.55689697 236.88176758 327.28884277 236.9765625 328.04296875 C237.09 328.87119141 237.2034375 329.69941406 237.3203125 330.55273438 C237.42085938 331.42220703 237.52140625 332.29167969 237.625 333.1875 C237.73328125 334.00669922 237.8415625 334.82589844 237.953125 335.66992188 C238.31716616 338.44467742 238.65774549 341.22247301 239 344 C239.66 348.95 240.32 353.9 241 359 C198.76 359 156.52 359 113 359 C112.67 343.16 112.34 327.32 112 311 C108.67193911 295.03875142 108.67193911 295.03875142 102.91796875 280.9609375 C102 279 102 279 102 276 C105.91529148 275.16011547 109.83243972 274.32923187 113.75 273.5 C114.86117187 273.26152344 115.97234375 273.02304687 117.1171875 272.77734375 C118.72207031 272.43896484 118.72207031 272.43896484 120.359375 272.09375 C121.34389648 271.88427734 122.32841797 271.67480469 123.34277344 271.45898438 C126 271 126 271 130 271 C129.01 266.38 128.02 261.76 127 257 C118.6173307 257.60580635 110.60675964 258.96744114 102.375 260.625 C87.67306002 263.50785758 72.89038127 265.74694348 58.0625 267.875 C56.98466248 268.03188293 55.90682495 268.18876587 54.79632568 268.35040283 C51.6894496 268.80099133 48.58138193 269.24206127 45.47265625 269.6796875 C44.54877609 269.81377014 43.62489594 269.94785278 42.67301941 270.08599854 C32.67688901 271.46325718 23.20749667 272.34824646 14.57421875 266.30078125 C6.17504683 259.30376241 3.58333915 251.83785455 1.74609375 241.28125 C1.55910416 240.2651062 1.37211456 239.2489624 1.17945862 238.20202637 C0.58734088 234.96998007 0.01207304 231.73520635 -0.5625 228.5 C-0.95134407 226.35916947 -1.34130869 224.21854215 -1.73242188 222.078125 C-3.13336988 214.39160457 -4.52801577 206.70407734 -5.87451172 199.0078125 C-6.13362681 197.55726267 -6.3928919 196.10673963 -6.65234375 194.65625 C-6.86753662 193.42712891 -7.08272949 192.19800781 -7.30444336 190.93164062 C-7.86016938 187.83313747 -7.86016938 187.83313747 -10 185 C-12.79227326 183.85895942 -12.79227326 183.85895942 -16.0625 183 C-17.22910156 182.65839844 -18.39570312 182.31679688 -19.59765625 181.96484375 C-21.62500147 181.38992496 -23.65331165 180.81836605 -25.68359375 180.25390625 C-31.32847532 178.56900905 -35.05653921 176.40057594 -38.09559631 171.08297729 C-40.22600304 166.17633118 -39.67495001 161.77779898 -37.83450317 156.93011475 C-36.13663633 153.31467223 -34.32901607 149.77776333 -32.47265625 146.2421875 C-31.80057117 144.92756124 -31.13039103 143.61195953 -30.46202087 142.29544067 C-28.70700173 138.84777612 -26.9323505 135.41066109 -25.15142822 131.97631836 C-22.30107508 126.47595639 -19.47315377 120.96425467 -16.66033745 115.44461441 C-15.67859204 113.52817552 -14.6836624 111.61903005 -13.68727112 109.71017456 C-13.08672409 108.53850739 -12.48617706 107.36684021 -11.86743164 106.15966797 C-11.33670547 105.13646454 -10.80597931 104.11326111 -10.25917053 103.05905151 C-7.76744047 97.00559772 -7.8107491 92.47454 -9.75 86.3125 C-17.56783263 59.29799981 -18.13541427 32.57112205 -4.90234375 7.36328125 C-2.00913344 2.24818048 -2.00913344 2.24818048 0 0 Z " fill="#EDC4A4" transform="translate(71,145)"/>
<path d="M0 0 C0.99 0.495 0.99 0.495 2 1 C2.33129883 3.2644043 2.33129883 3.2644043 2.45703125 6.32421875 C2.54368042 8.0561145 2.54368042 8.0561145 2.63208008 9.82299805 C2.72138794 11.73592651 2.72138794 11.73592651 2.8125 13.6875 C8.25607781 112.91427417 43.39400573 209.82193998 119 313 C120.15822266 314.45212891 120.15822266 314.45212891 121.33984375 315.93359375 C125.85875531 321.53259665 130.56303774 326.91419742 135.4453125 332.19921875 C136.77873879 333.66109436 138.10834294 335.12744997 139.38989258 336.63500977 C144.80801212 342.99716378 150.70896506 348.86017315 156.62426758 354.75463867 C158.43360933 356.55862085 160.23754319 358.36788665 162.04101562 360.17773438 C167.85821168 365.99858662 173.70342683 371.69310763 180 377 C181.08367935 377.94864142 182.16575552 378.89911786 183.24609375 379.8515625 C191.51776251 387.06579554 200.09002543 393.80373268 208.86523438 400.39306641 C210.95372361 401.96516569 213.03256084 403.54924023 215.109375 405.13671875 C223.84621672 411.7891363 232.79087324 418.01936021 242 424 C238.27613469 425.3792297 236.13747446 424.59932076 232.50390625 423.18359375 C231.40216064 422.75618896 230.30041504 422.32878418 229.1652832 421.88842773 C227.97636475 421.40962158 226.78744629 420.93081543 225.5625 420.4375 C224.95062836 420.19379669 224.33875671 419.95009338 223.70834351 419.69900513 C203.0964693 411.47032019 182.7065017 401.98716974 164 390 C163.36497559 389.59330078 162.72995117 389.18660156 162.07568359 388.76757812 C157.66492951 385.91963719 153.32158227 382.98105319 149 380 C148.42717285 379.60876953 147.8543457 379.21753906 147.26416016 378.81445312 C121.04247239 360.85009365 95.37828201 338.21780269 76 313 C75.12765556 311.94722887 74.25104982 310.8979798 73.37109375 309.8515625 C60.26359923 294.13279194 49.05328422 276.70645612 39.04980469 258.86914062 C38.06053089 257.10777313 37.05044558 255.35814096 36.0390625 253.609375 C23.99963555 232.08582805 15.76725914 208.50335252 7.8125 185.25 C6.9131461 182.64263388 6.01037448 180.03645703 5.10717773 177.43041992 C3.73512562 173.47009628 2.36352854 169.50962573 0.99659729 165.54753113 C-3.41034998 152.77728135 -7.91459926 140.04208092 -12.4375 127.3125 C-13.12338997 125.37991793 -13.80918415 123.44730186 -14.49487305 121.51464844 C-14.81982254 120.59934357 -15.14477203 119.6840387 -15.47956848 118.74099731 C-16.10466424 116.97831586 -16.72855936 115.21520806 -17.35112 113.45162964 C-18.81669078 109.30435008 -20.30304787 105.16717083 -21.83642578 101.04443359 C-22.12332779 100.26255173 -22.4102298 99.48066986 -22.70582581 98.6750946 C-23.24166643 97.21673777 -23.78581454 95.76139448 -24.33995056 94.30989075 C-25.29533326 91.6902097 -26.03765956 89.51768085 -25.83349609 86.71118164 C-24.85530453 84.70293775 -23.84179708 83.6338094 -22.12890625 82.203125 C-21.55462891 81.71972656 -20.98035156 81.23632812 -20.38867188 80.73828125 C-19.78603516 80.24714844 -19.18339844 79.75601563 -18.5625 79.25 C-17.96373047 78.74339844 -17.36496094 78.23679687 -16.74804688 77.71484375 C-12.2772174 74 -12.2772174 74 -10 74 C-11.42636282 72.15798847 -12.86644632 70.32659413 -14.3125 68.5 C-15.51326172 66.96859375 -15.51326172 66.96859375 -16.73828125 65.40625 C-17.48464844 64.6121875 -18.23101562 63.818125 -19 63 C-23.18176124 63 -25.0721671 65.30302495 -28.0625 67.9375 C-28.63959717 68.43749512 -29.21669434 68.93749023 -29.8112793 69.45263672 C-30.98870769 70.47599234 -32.16295664 71.50301766 -33.33398438 72.53369141 C-34.81442252 73.83666789 -36.30494936 75.12816153 -37.796875 76.41796875 C-55.80305415 92.21531536 -68.54064562 112.87113605 -70.15234375 137.31005859 C-70.80331115 153.44428565 -69.6172523 169.73286356 -65.23339844 185.30737305 C-63.96795609 190.0152177 -64.04712453 193.31452317 -65 198 C-68 198 -68 198 -69.54296875 196.8125 C-84.46520855 180.36613595 -88.15743748 159.40275334 -87.17578125 137.93603516 C-84.70046266 96.59133883 -67.28451941 59.89381103 -39 30 C-37.84757812 28.76830078 -37.84757812 28.76830078 -36.671875 27.51171875 C-27.85724312 18.37009246 -17.98826356 11.10463933 -7.3125 4.3125 C-6.61688965 3.86583984 -5.9212793 3.41917969 -5.20458984 2.95898438 C-3.50910188 1.90640928 -1.75833104 0.94385683 0 0 Z " fill="#53210F" transform="translate(111,45)"/>
<path d="M0 0 C0.66 -0.0103125 1.32 -0.020625 2 -0.03125 C5.11660767 0.79659891 6.08072902 1.87032401 8 4.5 C9.1357367 7.90041831 9.8484871 11.36503757 10.5625 14.875 C13.03814928 26.8264323 13.03814928 26.8264323 20.55859375 36.12109375 C24.39128583 38.28579824 28.57014392 39.21068954 32.84472656 40.11962891 C37.80741166 41.21111748 37.80741166 41.21111748 40 44.5 C40.67623862 51.60050556 40.67623862 51.60050556 38.3671875 54.671875 C35.46782762 56.91098461 33.35208421 57.25340873 29.75 57.8125 C23.40594074 59.1383371 18.8494041 61.14307065 15 66.5 C12.22409964 72.89070919 10.87101149 79.31225082 9.62695312 86.140625 C8.71236272 90.67148289 7.98417364 93.71181218 4 96.5 C2 97.03125 2 97.03125 0 97 C-0.99 97.01546875 -0.99 97.01546875 -2 97.03125 C-5.141474 96.19679597 -6.07815694 95.17010163 -8 92.5 C-9.11832171 88.93079118 -9.80578875 85.29713811 -10.5 81.625 C-12.12528293 73.09506685 -13.74657578 66.38556716 -20.81640625 60.65625 C-24.54978065 58.67936481 -28.6865977 57.82301927 -32.79418945 56.93115234 C-37.80110444 55.79834334 -37.80110444 55.79834334 -40 52.5 C-40.67623862 45.39949444 -40.67623862 45.39949444 -38.3671875 42.328125 C-35.46782762 40.08901539 -33.35208421 39.74659127 -29.75 39.1875 C-23.26721861 37.79781286 -18.865543 36.04954193 -15 30.5 C-12.65767623 25.15024817 -11.44658666 19.60468278 -10.23828125 13.91015625 C-9.99464844 12.76417969 -9.75101562 11.61820313 -9.5 10.4375 C-9.3040625 9.39464844 -9.108125 8.35179687 -8.90625 7.27734375 C-7.42075858 2.7248248 -4.9560644 -0.07743851 0 0 Z " fill="#000000" transform="translate(464,167.5)"/>
<path d="M0 0 C0.66 -0.0103125 1.32 -0.020625 2 -0.03125 C5.11660767 0.79659891 6.08072902 1.87032401 8 4.5 C9.1357367 7.90041831 9.8484871 11.36503757 10.5625 14.875 C13.03814928 26.8264323 13.03814928 26.8264323 20.55859375 36.12109375 C24.39128583 38.28579824 28.57014392 39.21068954 32.84472656 40.11962891 C37.80741166 41.21111748 37.80741166 41.21111748 40 44.5 C40.67623862 51.60050556 40.67623862 51.60050556 38.3671875 54.671875 C35.46782762 56.91098461 33.35208421 57.25340873 29.75 57.8125 C23.40594074 59.1383371 18.8494041 61.14307065 15 66.5 C12.22409964 72.89070919 10.87101149 79.31225082 9.62695312 86.140625 C8.71236272 90.67148289 7.98417364 93.71181218 4 96.5 C2 97.03125 2 97.03125 0 97 C-0.99 97.01546875 -0.99 97.01546875 -2 97.03125 C-5.141474 96.19679597 -6.07815694 95.17010163 -8 92.5 C-9.11832171 88.93079118 -9.80578875 85.29713811 -10.5 81.625 C-12.12528293 73.09506685 -13.74657578 66.38556716 -20.81640625 60.65625 C-24.54978065 58.67936481 -28.6865977 57.82301927 -32.79418945 56.93115234 C-37.80110444 55.79834334 -37.80110444 55.79834334 -40 52.5 C-40.67623862 45.39949444 -40.67623862 45.39949444 -38.3671875 42.328125 C-35.46782762 40.08901539 -33.35208421 39.74659127 -29.75 39.1875 C-23.26721861 37.79781286 -18.865543 36.04954193 -15 30.5 C-12.65767623 25.15024817 -11.44658666 19.60468278 -10.23828125 13.91015625 C-9.99464844 12.76417969 -9.75101562 11.61820313 -9.5 10.4375 C-9.3040625 9.39464844 -9.108125 8.35179687 -8.90625 7.27734375 C-7.42075858 2.7248248 -4.9560644 -0.07743851 0 0 Z " fill="#000000" transform="translate(408,7.5)"/>
<path d="M0 0 C0.65742188 0.11472656 1.31484375 0.22945312 1.9921875 0.34765625 C2.65476563 0.43917969 3.31734375 0.53070313 4 0.625 C6.73656473 1.77573119 7.43842622 2.76775969 8.8671875 5.41015625 C9.90320316 9.48460708 10.50569642 13.64210877 11.15234375 17.79296875 C12.44887151 25.17320371 14.92874179 30.42257265 20.203125 35.78515625 C24.07716197 38.14820519 28.1380928 38.91934114 32.515625 39.83203125 C35.53852351 40.5333437 37.55811797 41.11524728 39.828125 43.28125 C40.98326289 45.64797989 41.1872654 46.87702452 40.8671875 49.47265625 C40.774375 50.48005859 40.774375 50.48005859 40.6796875 51.5078125 C39.44474673 54.39923631 37.65950416 55.08011127 34.8671875 56.41015625 C32.92396613 56.91052252 30.96319893 57.34637225 28.9921875 57.72265625 C23.31356972 59.08998928 19.44270199 60.68967364 15.8671875 65.41015625 C12.03923212 72.04693603 10.92004158 79.53435383 9.67578125 86.9921875 C8.87510292 90.37669737 7.90127446 92.61005181 5.8671875 95.41015625 C3.05803276 96.81473362 0.97908216 96.65910782 -2.1328125 96.41015625 C-5.10234795 94.92538852 -5.94709837 93.88468057 -7.16015625 90.78515625 C-8.04041181 87.73077552 -8.63268448 84.73690395 -9.12060547 81.59863281 C-10.45247547 73.13474915 -12.36026591 67.08597087 -18.5703125 61.03515625 C-22.04415694 58.83223051 -25.35508696 57.71203417 -29.41015625 57.0234375 C-35.63366498 55.92398458 -35.63366498 55.92398458 -38.2578125 53.22265625 C-39.41305874 49.50936475 -39.17035839 47.14532144 -38.1328125 43.41015625 C-35.18838773 40.58591209 -32.74490189 39.96964638 -28.7578125 39.47265625 C-22.76839261 38.49967459 -19.25038448 36.52772823 -14.9453125 32.22265625 C-10.40360772 25.17518331 -9.42910278 17.01011725 -8.171875 8.86328125 C-6.85434291 4.48471596 -4.77432625 0.91813966 0 0 Z " fill="#010000" transform="translate(175.1328125,47.58984375)"/>
<path d="M0 0 C4.2742558 1.5830577 6.26531794 4.50568404 9 8 C7.33248852 11.94139078 4.77289351 14.7892812 2 18 C-2.2742558 16.4169423 -4.26531794 13.49431596 -7 10 C-5.33248852 6.05860922 -2.77289351 3.2107188 0 0 Z " fill="#C43486" transform="translate(463,207)"/>
<path d="M0 0 C4.2742558 1.5830577 6.26531794 4.50568404 9 8 C7.33248852 11.94139078 4.77289351 14.7892812 2 18 C-2.2742558 16.4169423 -4.26531794 13.49431596 -7 10 C-5.33248852 6.05860922 -2.77289351 3.2107188 0 0 Z " fill="#C43486" transform="translate(175,87)"/>
<path d="M0 0 C4.2742558 1.5830577 6.26531794 4.50568404 9 8 C7.33248852 11.94139078 4.77289351 14.7892812 2 18 C-2.2742558 16.4169423 -4.26531794 13.49431596 -7 10 C-5.33248852 6.05860922 -2.77289351 3.2107188 0 0 Z " fill="#C43486" transform="translate(407,47)"/>
<path d="M0 0 C0.58523437 0.37769531 1.17046875 0.75539063 1.7734375 1.14453125 C4.84001299 3.11063896 7.91800469 5.0582029 11 7 C11.62729004 7.39654785 12.25458008 7.7930957 12.90087891 8.20166016 C22.31988106 14.13265563 31.90399923 19.69038387 41.6875 25 C42.70287842 25.55187988 43.71825684 26.10375977 44.7644043 26.67236328 C49.76396728 29.35992471 54.73385911 31.87881318 60 34 C60 34.99 60 35.98 60 37 C54.72567471 35.44625768 50.08242146 33.13051325 45.25 30.5625 C44.41944092 30.12220459 43.58888184 29.68190918 42.7331543 29.22827148 C30.7364304 22.79241667 19.21972413 15.61267024 7.9375 8 C7.25212158 7.54310791 6.56674316 7.08621582 5.8605957 6.61547852 C1.11878781 3.35636342 1.11878781 3.35636342 0 0 Z " fill="#CD9D7A" transform="translate(247,435)"/>
<path d="M0 0 C4.46797338 1.39878802 8.63822079 3.13630772 12.875 5.125 C14.60363281 5.93324219 14.60363281 5.93324219 16.3671875 6.7578125 C17.23601562 7.16773438 18.10484375 7.57765625 19 8 C19 8.99 19 9.98 19 11 C14.37324343 9.6077541 10.35313769 7.70479016 6.125 5.375 C4.97257812 4.74335938 3.82015625 4.11171875 2.6328125 3.4609375 C1.76398438 2.97882813 0.89515625 2.49671875 0 2 C0 1.34 0 0.68 0 0 Z " fill="#D7A580" transform="translate(288,461)"/>
<path d="M0 0 C3.94120709 0.56302958 6.7508723 1.6791945 10 4 C10 4.66 10 5.32 10 6 C6.00499382 4.6302836 3.19990508 2.74277578 0 0 Z " fill="#D7A581" transform="translate(264,448)"/>
</svg>
